<svg xmlns="http://www.w3.org/2000/svg" xmlns:xlink="http://www.w3.org/1999/xlink" width="500" zoomAndPan="magnify" viewBox="0 0 375 374.999991" height="500" preserveAspectRatio="xMidYMid meet" version="1.0"><defs><filter x="0%" y="0%" width="100%" height="100%" id="da31336f42"><feColorMatrix values="0 0 0 0 1 0 0 0 0 1 0 0 0 0 1 0 0 0 1 0" color-interpolation-filters="sRGB"/></filter><g/><clipPath id="62469c18da"><path d="M 111 80.070312 L 265 80.070312 L 265 231 L 111 231 Z M 111 80.070312 " clip-rule="nonzero"/></clipPath><clipPath id="e835169fbd"><path d="M 154.390625 129.761719 L 220.609375 129.761719 L 220.609375 187.898438 L 154.390625 187.898438 Z M 154.390625 129.761719 " clip-rule="nonzero"/></clipPath><clipPath id="5e001e45ed"><path d="M 154.390625 146.894531 C 154.390625 165.34375 187.5 187.84375 187.5 187.84375 C 187.5 187.84375 220.460938 165.183594 220.609375 146.894531 C 220.609375 137.453125 212.914062 129.761719 203.472656 129.761719 C 196.214844 129.761719 189.964844 134.40625 187.5 140.792969 C 185.035156 134.40625 178.785156 129.761719 171.527344 129.761719 C 162.085938 129.761719 154.390625 137.453125 154.390625 146.894531 " clip-rule="nonzero"/></clipPath><mask id="0a54dbfb20"><g filter="url(#da31336f42)"><rect x="-37.5" width="450" fill="#000000" y="-37.499999" height="449.999989" fill-opacity="0.8196"/></g></mask><clipPath id="4327bf06c7"><path d="M 0.152344 0.617188 L 52.847656 0.617188 L 52.847656 46.886719 L 0.152344 46.886719 Z M 0.152344 0.617188 " clip-rule="nonzero"/></clipPath><clipPath id="08e636d896"><path d="M 0.152344 14.257812 C 0.152344 28.9375 26.5 46.84375 26.5 46.84375 C 26.5 46.84375 52.734375 28.8125 52.847656 14.257812 C 52.847656 6.742188 46.726562 0.617188 39.210938 0.617188 C 33.433594 0.617188 28.460938 4.316406 26.5 9.398438 C 24.539062 4.316406 19.566406 0.617188 13.789062 0.617188 C 6.273438 0.617188 0.152344 6.742188 0.152344 14.257812 " clip-rule="nonzero"/></clipPath><clipPath id="f4927f2047"><rect x="0" width="54" y="0" height="47"/></clipPath></defs><path fill="#1b9ce4" d="M 138.449219 151.15625 C 138.449219 125.230469 159.46875 104.210938 185.394531 104.210938 C 197.25 104.210938 208.074219 108.605469 216.335938 115.855469 C 207.347656 101.921875 191.691406 92.695312 173.878906 92.695312 C 145.996094 92.695312 123.390625 115.300781 123.390625 143.183594 C 123.390625 167.410156 140.453125 187.648438 163.21875 192.542969 C 148.472656 184.625 138.449219 169.0625 138.449219 151.15625 " fill-opacity="1" fill-rule="nonzero"/><g clip-path="url(#62469c18da)"><path fill="#183e9f" d="M 233.882812 80.417969 C 232.957031 80.070312 232.546875 81.039062 232.386719 82.339844 C 232.078125 84.878906 233.09375 87.394531 235.019531 89.082031 C 255.148438 106.71875 251.242188 149.933594 238.085938 147.355469 C 229.449219 145.664062 238.648438 119.992188 231.445312 119.117188 C 226.664062 118.535156 222.414062 130.4375 222.71875 146.128906 C 222.890625 155.105469 225.773438 162.515625 228.308594 168.945312 C 231.976562 178.261719 228.605469 188.925781 220.167969 194.3125 C 193.3125 211.449219 157.246094 208.292969 133.789062 184.832031 C 121.398438 172.441406 114.671875 156.527344 113.613281 140.3125 C 108.429688 164.324219 115.191406 190.394531 133.902344 209.023438 C 157.484375 232.507812 195.136719 237.394531 223.957031 220.753906 C 251.3125 204.953125 262.753906 172.445312 264.382812 142.21875 C 266.453125 103.773438 244.386719 84.375 233.882812 80.417969 Z M 230.113281 101.457031 C 240.570312 110.644531 244.523438 126.742188 244.058594 139.703125 C 245.699219 135.683594 246.589844 129.796875 246.386719 123.496094 C 246.113281 115.070312 244.109375 107.179688 240.753906 100.785156 C 236.417969 96.613281 232.144531 93.972656 228.945312 92.765625 C 227.996094 92.410156 227.589844 93.429688 227.4375 94.777344 C 227.15625 97.304688 228.203125 99.777344 230.113281 101.457031 " fill-opacity="1" fill-rule="nonzero"/></g><g clip-path="url(#e835169fbd)"><g clip-path="url(#5e001e45ed)"><path fill="#183e9f" d="M 154.390625 129.761719 L 220.609375 129.761719 L 220.609375 187.898438 L 154.390625 187.898438 Z M 154.390625 129.761719 " fill-opacity="1" fill-rule="nonzero"/></g></g><g mask="url(#0a54dbfb20)"><g transform="matrix(1, 0, 0, 1, 161, 141)"><g clip-path="url(#f4927f2047)"><g clip-path="url(#4327bf06c7)"><g clip-path="url(#08e636d896)"><path fill="#54afe6" d="M 0.152344 0.617188 L 52.847656 0.617188 L 52.847656 46.886719 L 0.152344 46.886719 Z M 0.152344 0.617188 " fill-opacity="1" fill-rule="nonzero"/></g></g></g></g></g><g fill="#183172" fill-opacity="1"><g transform="translate(68.414063, 287.533928)"><g><path d="M 23.796875 -12.78125 C 23.796875 -8.851562 22.59375 -5.703125 20.1875 -3.328125 C 17.976562 -1.109375 15.0625 0 11.4375 0 L 2.34375 0 L 2.34375 -23.484375 C 2.34375 -23.503906 2.253906 -23.847656 2.078125 -24.515625 C 1.898438 -25.179688 1.800781 -25.550781 1.78125 -25.625 L 11.484375 -25.625 C 15.328125 -25.625 18.335938 -24.445312 20.515625 -22.09375 C 22.703125 -19.75 23.796875 -16.644531 23.796875 -12.78125 Z M 18.625 -12.640625 C 18.625 -14.316406 18.390625 -15.84375 17.921875 -17.21875 C 17.453125 -18.59375 16.640625 -19.757812 15.484375 -20.71875 C 14.328125 -21.675781 12.890625 -22.15625 11.171875 -22.15625 L 7.171875 -22.15625 L 7.171875 -3.46875 L 11.234375 -3.46875 C 12.515625 -3.46875 13.644531 -3.71875 14.625 -4.21875 C 15.601562 -4.71875 16.375 -5.40625 16.9375 -6.28125 C 17.5 -7.15625 17.921875 -8.125 18.203125 -9.1875 C 18.484375 -10.25 18.625 -11.398438 18.625 -12.640625 Z M 18.625 -12.640625 "/></g></g></g><g fill="#183172" fill-opacity="1"><g transform="translate(92.873541, 287.533928)"><g><path d="M 25.125 -12.78125 C 25.125 -8.925781 24.015625 -5.765625 21.796875 -3.296875 C 19.585938 -0.835938 16.582031 0.390625 12.78125 0.390625 C 8.96875 0.390625 5.992188 -0.847656 3.859375 -3.328125 C 1.734375 -5.816406 0.671875 -8.988281 0.671875 -12.84375 C 0.671875 -16.71875 1.742188 -19.878906 3.890625 -22.328125 C 6.035156 -24.773438 9.007812 -26 12.8125 -26 C 16.707031 -26 19.734375 -24.78125 21.890625 -22.34375 C 24.046875 -19.90625 25.125 -16.71875 25.125 -12.78125 Z M 19.953125 -12.640625 C 19.953125 -13.867188 19.832031 -15.035156 19.59375 -16.140625 C 19.363281 -17.253906 18.988281 -18.316406 18.46875 -19.328125 C 17.957031 -20.347656 17.21875 -21.160156 16.25 -21.765625 C 15.289062 -22.378906 14.15625 -22.6875 12.84375 -22.6875 C 11.5625 -22.6875 10.441406 -22.398438 9.484375 -21.828125 C 8.523438 -21.253906 7.789062 -20.484375 7.28125 -19.515625 C 6.769531 -18.546875 6.394531 -17.519531 6.15625 -16.4375 C 5.925781 -15.351562 5.8125 -14.203125 5.8125 -12.984375 C 5.8125 -11.742188 5.925781 -10.570312 6.15625 -9.46875 C 6.394531 -8.363281 6.769531 -7.300781 7.28125 -6.28125 C 7.789062 -5.269531 8.53125 -4.457031 9.5 -3.84375 C 10.46875 -3.238281 11.609375 -2.9375 12.921875 -2.9375 C 14.203125 -2.9375 15.316406 -3.222656 16.265625 -3.796875 C 17.222656 -4.367188 17.957031 -5.140625 18.46875 -6.109375 C 18.988281 -7.078125 19.363281 -8.101562 19.59375 -9.1875 C 19.832031 -10.269531 19.953125 -11.421875 19.953125 -12.640625 Z M 19.953125 -12.640625 "/></g></g></g><g fill="#183172" fill-opacity="1"><g transform="translate(118.66272, 287.533928)"><g><path d="M 21.421875 -2.171875 C 19.953125 -1.265625 18.582031 -0.601562 17.3125 -0.1875 C 16.039062 0.21875 14.585938 0.421875 12.953125 0.421875 C 9.003906 0.421875 5.972656 -0.8125 3.859375 -3.28125 C 1.753906 -5.757812 0.703125 -8.992188 0.703125 -12.984375 C 0.703125 -16.785156 1.804688 -19.921875 4.015625 -22.390625 C 6.234375 -24.867188 9.222656 -26.109375 12.984375 -26.109375 C 14.429688 -26.109375 15.945312 -25.894531 17.53125 -25.46875 C 19.125 -25.050781 20.375 -24.4375 21.28125 -23.625 L 18.765625 -20.40625 C 18.128906 -21.101562 17.285156 -21.660156 16.234375 -22.078125 C 15.191406 -22.503906 14.164062 -22.71875 13.15625 -22.71875 C 11.425781 -22.71875 9.992188 -22.226562 8.859375 -21.25 C 7.734375 -20.269531 6.960938 -19.085938 6.546875 -17.703125 C 6.128906 -16.328125 5.921875 -14.789062 5.921875 -13.09375 C 5.921875 -11.96875 6.066406 -10.828125 6.359375 -9.671875 C 6.648438 -8.515625 7.070312 -7.414062 7.625 -6.375 C 8.1875 -5.34375 8.957031 -4.5 9.9375 -3.84375 C 10.914062 -3.195312 12.015625 -2.875 13.234375 -2.875 C 15.398438 -2.875 17.394531 -3.75 19.21875 -5.5 Z M 21.421875 -2.171875 "/></g></g></g><g fill="#183172" fill-opacity="1"><g transform="translate(140.497794, 287.533928)"><g><path d="M 19.78125 -22.15625 L 12.5625 -22.15625 L 12.5625 0 L 7.5625 0 L 7.5625 -22.15625 L 0.453125 -22.15625 L 0.453125 -25.625 L 19.78125 -25.625 Z M 19.78125 -22.15625 "/></g></g></g><g fill="#183172" fill-opacity="1"><g transform="translate(160.723222, 287.533928)"><g><path d="M 25.125 -12.78125 C 25.125 -8.925781 24.015625 -5.765625 21.796875 -3.296875 C 19.585938 -0.835938 16.582031 0.390625 12.78125 0.390625 C 8.96875 0.390625 5.992188 -0.847656 3.859375 -3.328125 C 1.734375 -5.816406 0.671875 -8.988281 0.671875 -12.84375 C 0.671875 -16.71875 1.742188 -19.878906 3.890625 -22.328125 C 6.035156 -24.773438 9.007812 -26 12.8125 -26 C 16.707031 -26 19.734375 -24.78125 21.890625 -22.34375 C 24.046875 -19.90625 25.125 -16.71875 25.125 -12.78125 Z M 19.953125 -12.640625 C 19.953125 -13.867188 19.832031 -15.035156 19.59375 -16.140625 C 19.363281 -17.253906 18.988281 -18.316406 18.46875 -19.328125 C 17.957031 -20.347656 17.21875 -21.160156 16.25 -21.765625 C 15.289062 -22.378906 14.15625 -22.6875 12.84375 -22.6875 C 11.5625 -22.6875 10.441406 -22.398438 9.484375 -21.828125 C 8.523438 -21.253906 7.789062 -20.484375 7.28125 -19.515625 C 6.769531 -18.546875 6.394531 -17.519531 6.15625 -16.4375 C 5.925781 -15.351562 5.8125 -14.203125 5.8125 -12.984375 C 5.8125 -11.742188 5.925781 -10.570312 6.15625 -9.46875 C 6.394531 -8.363281 6.769531 -7.300781 7.28125 -6.28125 C 7.789062 -5.269531 8.53125 -4.457031 9.5 -3.84375 C 10.46875 -3.238281 11.609375 -2.9375 12.921875 -2.9375 C 14.203125 -2.9375 15.316406 -3.222656 16.265625 -3.796875 C 17.222656 -4.367188 17.957031 -5.140625 18.46875 -6.109375 C 18.988281 -7.078125 19.363281 -8.101562 19.59375 -9.1875 C 19.832031 -10.269531 19.953125 -11.421875 19.953125 -12.640625 Z M 19.953125 -12.640625 "/></g></g></g><g fill="#183172" fill-opacity="1"><g transform="translate(186.512401, 287.533928)"><g><path d="M 21.59375 0 L 16.140625 0 L 9.03125 -11.40625 L 7.109375 -11.40625 L 7.109375 0 L 2.3125 0 L 2.3125 -23.484375 C 2.3125 -23.535156 2.226562 -23.878906 2.0625 -24.515625 C 1.894531 -25.160156 1.800781 -25.53125 1.78125 -25.625 L 10.5625 -25.625 C 13.15625 -25.625 15.242188 -25.070312 16.828125 -23.96875 C 18.421875 -22.875 19.21875 -21.09375 19.21875 -18.625 C 19.21875 -17.175781 18.664062 -15.820312 17.5625 -14.5625 C 16.46875 -13.300781 15.195312 -12.492188 13.75 -12.140625 Z M 14.140625 -18.65625 C 14.140625 -19.75 13.753906 -20.597656 12.984375 -21.203125 C 12.210938 -21.816406 11.253906 -22.125 10.109375 -22.125 L 7.109375 -22.125 L 7.109375 -14.84375 L 9.34375 -14.84375 C 12.539062 -14.84375 14.140625 -16.113281 14.140625 -18.65625 Z M 14.140625 -18.65625 "/></g></g></g><g fill="#183172" fill-opacity="1"><g transform="translate(207.192731, 287.533928)"><g><path d="M 17.359375 -7.53125 C 17.359375 -5.050781 16.488281 -3.101562 14.75 -1.6875 C 13.007812 -0.28125 10.878906 0.421875 8.359375 0.421875 C 5.160156 0.421875 2.421875 -0.253906 0.140625 -1.609375 L 1.78125 -5.5 C 3.601562 -3.789062 5.644531 -2.9375 7.90625 -2.9375 C 9.09375 -2.9375 10.113281 -3.265625 10.96875 -3.921875 C 11.820312 -4.578125 12.25 -5.488281 12.25 -6.65625 C 12.25 -7.488281 11.96875 -8.234375 11.40625 -8.890625 C 10.84375 -9.546875 10.144531 -10.054688 9.3125 -10.421875 C 8.488281 -10.796875 7.585938 -11.234375 6.609375 -11.734375 C 5.628906 -12.242188 4.722656 -12.753906 3.890625 -13.265625 C 3.066406 -13.773438 2.375 -14.503906 1.8125 -15.453125 C 1.257812 -16.398438 0.984375 -17.488281 0.984375 -18.71875 C 0.984375 -21.125 1.816406 -22.945312 3.484375 -24.1875 C 5.148438 -25.425781 7.375 -26.046875 10.15625 -26.046875 C 11.195312 -26.046875 12.40625 -25.832031 13.78125 -25.40625 C 15.164062 -24.988281 16.21875 -24.5 16.9375 -23.9375 L 14.53125 -20.9375 C 13.21875 -22.101562 11.601562 -22.6875 9.6875 -22.6875 C 8.707031 -22.6875 7.863281 -22.425781 7.15625 -21.90625 C 6.445312 -21.394531 6.09375 -20.671875 6.09375 -19.734375 C 6.09375 -18.921875 6.367188 -18.203125 6.921875 -17.578125 C 7.484375 -16.960938 8.175781 -16.46875 9 -16.09375 C 9.832031 -15.726562 10.738281 -15.285156 11.71875 -14.765625 C 12.695312 -14.253906 13.601562 -13.734375 14.4375 -13.203125 C 15.269531 -12.679688 15.960938 -11.929688 16.515625 -10.953125 C 17.078125 -9.972656 17.359375 -8.832031 17.359375 -7.53125 Z M 17.359375 -7.53125 "/></g></g></g><g fill="#183172" fill-opacity="1"><g transform="translate(225.248657, 287.533928)"><g/></g></g><g fill="#183172" fill-opacity="1"><g transform="translate(233.29684, 287.533928)"><g><path d="M 19.21875 -17.953125 C 19.21875 -15.429688 18.320312 -13.523438 16.53125 -12.234375 C 14.75 -10.941406 12.5625 -10.296875 9.96875 -10.296875 L 7.109375 -10.296875 L 7.109375 0 L 2.3125 0 L 2.3125 -23.484375 C 2.3125 -23.535156 2.226562 -23.878906 2.0625 -24.515625 C 1.894531 -25.160156 1.800781 -25.53125 1.78125 -25.625 L 9.90625 -25.625 C 12.707031 -25.625 14.957031 -25.019531 16.65625 -23.8125 C 18.363281 -22.613281 19.21875 -20.660156 19.21875 -17.953125 Z M 14.109375 -17.953125 C 14.109375 -19.265625 13.769531 -20.289062 13.09375 -21.03125 C 12.414062 -21.78125 11.421875 -22.15625 10.109375 -22.15625 L 7.140625 -22.15625 L 7.140625 -13.6875 L 10.078125 -13.6875 C 11.335938 -13.6875 12.320312 -14.078125 13.03125 -14.859375 C 13.75 -15.640625 14.109375 -16.671875 14.109375 -17.953125 Z M 14.109375 -17.953125 "/></g></g></g><g fill="#183172" fill-opacity="1"><g transform="translate(253.417292, 287.533928)"><g><path d="M 21.59375 0 L 16.140625 0 L 9.03125 -11.40625 L 7.109375 -11.40625 L 7.109375 0 L 2.3125 0 L 2.3125 -23.484375 C 2.3125 -23.535156 2.226562 -23.878906 2.0625 -24.515625 C 1.894531 -25.160156 1.800781 -25.53125 1.78125 -25.625 L 10.5625 -25.625 C 13.15625 -25.625 15.242188 -25.070312 16.828125 -23.96875 C 18.421875 -22.875 19.21875 -21.09375 19.21875 -18.625 C 19.21875 -17.175781 18.664062 -15.820312 17.5625 -14.5625 C 16.46875 -13.300781 15.195312 -12.492188 13.75 -12.140625 Z M 14.140625 -18.65625 C 14.140625 -19.75 13.753906 -20.597656 12.984375 -21.203125 C 12.210938 -21.816406 11.253906 -22.125 10.109375 -22.125 L 7.109375 -22.125 L 7.109375 -14.84375 L 9.34375 -14.84375 C 12.539062 -14.84375 14.140625 -16.113281 14.140625 -18.65625 Z M 14.140625 -18.65625 "/></g></g></g><g fill="#183172" fill-opacity="1"><g transform="translate(274.097612, 287.533928)"><g><path d="M 22.015625 0 L 16.828125 0 L 14.3125 -7.34375 L 6.75 -7.34375 L 4.125 0 L 0.0625 0 L 9.140625 -25.625 L 12.953125 -25.625 Z M 13.15625 -10.78125 C 12.039062 -14.207031 11.15625 -17.125 10.5 -19.53125 C 9.707031 -16.613281 8.851562 -13.695312 7.9375 -10.78125 Z M 13.15625 -10.78125 "/></g></g></g><g fill="#183172" fill-opacity="1"><g transform="translate(296.177612, 287.533928)"><g><path d="M 20.890625 0 L 15.296875 0 L 9.875 -9.3125 L 4.09375 0 L -0.421875 0 L 7.59375 -12.984375 L 0.0625 -25.625 L 5.640625 -25.625 L 10.4375 -17.609375 L 15.40625 -25.625 L 19.921875 -25.625 L 12.671875 -13.796875 Z M 20.890625 0 "/></g></g></g><g fill="#183172" fill-opacity="1"><g transform="translate(316.647978, 287.533928)"><g><path d="M 7.140625 0 L 2.3125 0 L 2.3125 -23.484375 C 2.3125 -23.503906 2.269531 -23.675781 2.1875 -24 C 2.101562 -24.332031 2.019531 -24.671875 1.9375 -25.015625 C 1.851562 -25.367188 1.8125 -25.570312 1.8125 -25.625 L 7.140625 -25.625 Z M 7.140625 0 "/></g></g></g><g fill="#183172" fill-opacity="1"><g transform="translate(326.025861, 287.533928)"><g><path d="M 17.359375 -7.53125 C 17.359375 -5.050781 16.488281 -3.101562 14.75 -1.6875 C 13.007812 -0.28125 10.878906 0.421875 8.359375 0.421875 C 5.160156 0.421875 2.421875 -0.253906 0.140625 -1.609375 L 1.78125 -5.5 C 3.601562 -3.789062 5.644531 -2.9375 7.90625 -2.9375 C 9.09375 -2.9375 10.113281 -3.265625 10.96875 -3.921875 C 11.820312 -4.578125 12.25 -5.488281 12.25 -6.65625 C 12.25 -7.488281 11.96875 -8.234375 11.40625 -8.890625 C 10.84375 -9.546875 10.144531 -10.054688 9.3125 -10.421875 C 8.488281 -10.796875 7.585938 -11.234375 6.609375 -11.734375 C 5.628906 -12.242188 4.722656 -12.753906 3.890625 -13.265625 C 3.066406 -13.773438 2.375 -14.503906 1.8125 -15.453125 C 1.257812 -16.398438 0.984375 -17.488281 0.984375 -18.71875 C 0.984375 -21.125 1.816406 -22.945312 3.484375 -24.1875 C 5.148438 -25.425781 7.375 -26.046875 10.15625 -26.046875 C 11.195312 -26.046875 12.40625 -25.832031 13.78125 -25.40625 C 15.164062 -24.988281 16.21875 -24.5 16.9375 -23.9375 L 14.53125 -20.9375 C 13.21875 -22.101562 11.601562 -22.6875 9.6875 -22.6875 C 8.707031 -22.6875 7.863281 -22.425781 7.15625 -21.90625 C 6.445312 -21.394531 6.09375 -20.671875 6.09375 -19.734375 C 6.09375 -18.921875 6.367188 -18.203125 6.921875 -17.578125 C 7.484375 -16.960938 8.175781 -16.46875 9 -16.09375 C 9.832031 -15.726562 10.738281 -15.285156 11.71875 -14.765625 C 12.695312 -14.253906 13.601562 -13.734375 14.4375 -13.203125 C 15.269531 -12.679688 15.960938 -11.929688 16.515625 -10.953125 C 17.078125 -9.972656 17.359375 -8.832031 17.359375 -7.53125 Z M 17.359375 -7.53125 "/></g></g></g></svg>